<svg width="77" height="29" viewBox="0 0 77 29" fill="none" xmlns="http://www.w3.org/2000/svg">
<path d="M66.5884 14.7839L76.0478 28.5H0.5V0.5H76.0478L66.5884 14.2161L66.3926 14.5L66.5884 14.7839Z" fill="#F5F5F5" stroke="#C82A2A"/>
<path d="M11.95 13.75C11.95 14.56 12.13 15.275 12.49 15.895C12.86 16.515 13.34 17 13.93 17.35C14.52 17.7 15.16 17.875 15.85 17.875C16.35 17.875 16.805 17.81 17.215 17.68C17.635 17.55 18.015 17.37 18.355 17.14C18.695 16.9 18.985 16.625 19.225 16.315V17.995C18.785 18.385 18.305 18.675 17.785 18.865C17.265 19.055 16.62 19.15 15.85 19.15C15.12 19.15 14.435 19.02 13.795 18.76C13.165 18.49 12.61 18.115 12.13 17.635C11.65 17.145 11.275 16.57 11.005 15.91C10.735 15.25 10.6 14.53 10.6 13.75C10.6 12.97 10.735 12.25 11.005 11.59C11.275 10.93 11.65 10.36 12.13 9.88C12.61 9.39 13.165 9.015 13.795 8.755C14.435 8.485 15.12 8.35 15.85 8.35C16.62 8.35 17.265 8.445 17.785 8.635C18.305 8.825 18.785 9.115 19.225 9.505V11.185C18.985 10.875 18.695 10.605 18.355 10.375C18.015 10.135 17.635 9.95 17.215 9.82C16.805 9.69 16.35 9.625 15.85 9.625C15.16 9.625 14.52 9.8 13.93 10.15C13.34 10.5 12.86 10.985 12.49 11.605C12.13 12.215 11.95 12.93 11.95 13.75ZM21.3186 12.1H22.5186V19H21.3186V12.1ZM25.0686 12.1H26.5686L23.5686 14.95L26.8686 19H25.3686L22.0686 14.95L25.0686 12.1ZM33.775 13.3L28.075 19.525L28.15 17.8L33.85 11.575L33.775 13.3ZM29.275 12.1V17.875L28.075 19.525V12.1H29.275ZM33.85 11.575V19H32.65V13.225L33.85 11.575ZM39.9238 14.17L37.8988 18.55H36.5488L39.9238 11.575L43.2988 18.55H41.9488L39.9238 14.17ZM42.9988 19H36.9238V20.35H35.6488V17.875H44.1988V20.35H42.9988V19ZM45.9279 12.1H47.1279V19H45.9279V12.1ZM49.6779 12.1H51.1779L48.1779 14.95L51.4779 19H49.9779L46.6779 14.95L49.6779 12.1ZM53.1494 16.975C53.1494 17.215 53.2144 17.42 53.3444 17.59C53.4744 17.75 53.6494 17.875 53.8694 17.965C54.0894 18.045 54.3344 18.085 54.6044 18.085C55.0044 18.085 55.3594 18.025 55.6694 17.905C55.9794 17.785 56.2194 17.595 56.3894 17.335C56.5694 17.075 56.6594 16.73 56.6594 16.3L56.8994 17.05C56.8994 17.49 56.7794 17.87 56.5394 18.19C56.3094 18.5 55.9994 18.74 55.6094 18.91C55.2194 19.07 54.7844 19.15 54.3044 19.15C53.8744 19.15 53.4794 19.07 53.1194 18.91C52.7594 18.75 52.4694 18.515 52.2494 18.205C52.0394 17.885 51.9344 17.49 51.9344 17.02C51.9344 16.53 52.0544 16.115 52.2944 15.775C52.5344 15.435 52.8744 15.175 53.3144 14.995C53.7544 14.805 54.2744 14.71 54.8744 14.71C55.3144 14.71 55.6894 14.77 55.9994 14.89C56.3194 15 56.5744 15.13 56.7644 15.28C56.9544 15.42 57.0844 15.535 57.1544 15.625V16.33C56.8144 16.09 56.4694 15.915 56.1194 15.805C55.7694 15.685 55.3744 15.625 54.9344 15.625C54.5344 15.625 54.1994 15.68 53.9294 15.79C53.6694 15.9 53.4744 16.055 53.3444 16.255C53.2144 16.455 53.1494 16.695 53.1494 16.975ZM53.1494 13.72L52.5644 12.805C52.8244 12.615 53.1744 12.425 53.6144 12.235C54.0544 12.045 54.5844 11.95 55.2044 11.95C55.7344 11.95 56.1944 12.035 56.5844 12.205C56.9844 12.365 57.2944 12.6 57.5144 12.91C57.7444 13.22 57.8594 13.6 57.8594 14.05V19H56.6594V14.05C56.6594 13.7 56.5094 13.44 56.2094 13.27C55.9194 13.09 55.5844 13 55.2044 13C54.8744 13 54.5744 13.045 54.3044 13.135C54.0344 13.215 53.7994 13.315 53.5994 13.435C53.4094 13.545 53.2594 13.64 53.1494 13.72Z" fill="#C82A2A"/>
</svg>
