<svg width="34" height="32" viewBox="0 0 34 32" fill="none" xmlns="http://www.w3.org/2000/svg">
<path fill-rule="evenodd" clip-rule="evenodd" d="M31.1635 17.0729V17.0677C32.0197 16.1717 32.6932 15.1165 33.1452 13.961C33.6235 12.7386 33.8436 11.4305 33.7918 10.1189C33.74 8.80734 33.4174 7.52065 32.8442 6.3398C32.271 5.15895 31.4597 4.10948 30.4613 3.25738C29.4628 2.40528 28.2989 1.769 27.0426 1.38855C25.7863 1.0081 24.4649 0.89171 23.1615 1.0467C21.8581 1.2017 20.6008 1.62472 19.4688 2.28916C18.5316 2.8393 17.6969 3.54508 17 4.37468C16.3031 3.54508 15.4685 2.8393 14.5312 2.28916C13.3992 1.62472 12.142 1.2017 10.8385 1.0467C9.53511 0.89171 8.21371 1.0081 6.95744 1.38855C5.70118 1.769 4.53722 2.40528 3.53879 3.25738C2.54035 4.10948 1.72902 5.15895 1.15584 6.3398C0.582663 7.52065 0.260025 8.80734 0.208219 10.1189C0.156414 11.4305 0.376562 12.7386 0.85482 13.961C1.33308 15.1834 2.05913 16.2936 2.98725 17.2218L17 31.2328L31.1635 17.0729ZM5.07546 15.4297L17 27.3559L29.0752 15.2774C29.7577 14.5947 30.2863 13.774 30.6256 12.8704C30.965 11.9667 31.1072 11.0009 31.0428 10.0377C30.9783 9.0746 30.7087 8.13636 30.2519 7.28595C29.7952 6.43555 29.1619 5.69262 28.3946 5.10699C27.6272 4.52136 26.7435 4.10656 25.8027 3.89041C24.8619 3.67426 23.8858 3.66175 22.9398 3.85372C21.9938 4.0457 21.0997 4.43772 20.3176 5.00349C19.5355 5.56927 18.8834 6.29573 18.405 7.13415L18.257 7.39357H15.7431L15.5951 7.13415C15.1167 6.29573 14.4646 5.56927 13.6825 5.00349C12.9003 4.43772 12.0063 4.0457 11.0603 3.85372C10.1143 3.66175 9.13814 3.67426 8.19735 3.89041C7.25657 4.10656 6.37286 4.52136 5.60551 5.10699C4.83815 5.69262 4.20487 6.43555 3.74813 7.28595C3.29139 8.13636 3.02176 9.0746 2.9573 10.0377C2.89285 11.0009 3.03506 11.9667 3.37441 12.8704C3.71375 13.774 4.24239 14.5947 4.92487 15.2774L5.07546 15.4297Z" fill="#524336"/>
</svg>
