<svg width="105" height="29" viewBox="0 0 105 29" fill="none" xmlns="http://www.w3.org/2000/svg">
<path d="M94.5884 14.7839L104.048 28.5H0.5V0.5H104.048L94.5884 14.2161L94.3926 14.5L94.5884 14.7839Z" fill="#F5F5F5" stroke="#755FBB"/>
<path d="M16.45 8.5H17.95L14.845 13.495L18.175 19H16.675L14.2 14.605L11.65 19H10.15L13.57 13.495L10.525 8.5H12.025L14.215 12.385L16.45 8.5ZM25.2203 13.3L19.5203 19.525L19.5953 17.8L25.2953 11.575L25.2203 13.3ZM20.7203 12.1V17.875L19.5203 19.525V12.1H20.7203ZM25.2953 11.575V19H24.0953V13.225L25.2953 11.575ZM26.5691 12.1H30.6191V13.225H26.5691V12.1ZM27.9941 12.4H29.1941V19H27.9941V12.4ZM41.9453 12.1V19H40.7453V13.225H37.5203V19H36.3203V12.1H41.9453ZM45.3262 22.3H44.1262V12.1H45.3262V22.3ZM51.1012 15.55C51.1012 16.29 50.9462 16.93 50.6362 17.47C50.3262 18.01 49.9112 18.425 49.3912 18.715C48.8812 19.005 48.3112 19.15 47.6812 19.15C47.1112 19.15 46.6062 19.005 46.1662 18.715C45.7362 18.425 45.3962 18.01 45.1462 17.47C44.9062 16.93 44.7862 16.29 44.7862 15.55C44.7862 14.8 44.9062 14.16 45.1462 13.63C45.3962 13.09 45.7362 12.675 46.1662 12.385C46.6062 12.095 47.1112 11.95 47.6812 11.95C48.3112 11.95 48.8812 12.095 49.3912 12.385C49.9112 12.675 50.3262 13.09 50.6362 13.63C50.9462 14.16 51.1012 14.8 51.1012 15.55ZM49.8862 15.55C49.8862 15.02 49.7762 14.57 49.5562 14.2C49.3462 13.83 49.0612 13.55 48.7012 13.36C48.3512 13.17 47.9612 13.075 47.5312 13.075C47.1812 13.075 46.8362 13.17 46.4962 13.36C46.1562 13.55 45.8762 13.83 45.6562 14.2C45.4362 14.57 45.3262 15.02 45.3262 15.55C45.3262 16.08 45.4362 16.53 45.6562 16.9C45.8762 17.27 46.1562 17.55 46.4962 17.74C46.8362 17.93 47.1812 18.025 47.5312 18.025C47.9612 18.025 48.3512 17.93 48.7012 17.74C49.0612 17.55 49.3462 17.27 49.5562 16.9C49.7762 16.53 49.8862 16.08 49.8862 15.55ZM52.1559 15.55C52.1559 14.85 52.3109 14.23 52.6209 13.69C52.9409 13.15 53.3709 12.725 53.9109 12.415C54.4509 12.105 55.0559 11.95 55.7259 11.95C56.4059 11.95 57.0109 12.105 57.5409 12.415C58.0809 12.725 58.5059 13.15 58.8159 13.69C59.1359 14.23 59.2959 14.85 59.2959 15.55C59.2959 16.24 59.1359 16.86 58.8159 17.41C58.5059 17.95 58.0809 18.375 57.5409 18.685C57.0109 18.995 56.4059 19.15 55.7259 19.15C55.0559 19.15 54.4509 18.995 53.9109 18.685C53.3709 18.375 52.9409 17.95 52.6209 17.41C52.3109 16.86 52.1559 16.24 52.1559 15.55ZM53.3709 15.55C53.3709 16.03 53.4709 16.455 53.6709 16.825C53.8809 17.195 54.1609 17.49 54.5109 17.71C54.8709 17.92 55.2759 18.025 55.7259 18.025C56.1759 18.025 56.5759 17.92 56.9259 17.71C57.2859 17.49 57.5659 17.195 57.7659 16.825C57.9759 16.455 58.0809 16.03 58.0809 15.55C58.0809 15.07 57.9759 14.645 57.7659 14.275C57.5659 13.895 57.2859 13.6 56.9259 13.39C56.5759 13.18 56.1759 13.075 55.7259 13.075C55.2759 13.075 54.8709 13.18 54.5109 13.39C54.1609 13.6 53.8809 13.895 53.6709 14.275C53.4709 14.645 53.3709 15.07 53.3709 15.55ZM63.9473 14.17L61.9223 18.55H60.5723L63.9473 11.575L67.3223 18.55H65.9723L63.9473 14.17ZM67.0223 19H60.9473V20.35H59.6723V17.875H68.2223V20.35H67.0223V19ZM70.5664 16.975C70.5664 17.215 70.6314 17.42 70.7614 17.59C70.8914 17.75 71.0664 17.875 71.2864 17.965C71.5064 18.045 71.7514 18.085 72.0214 18.085C72.4214 18.085 72.7764 18.025 73.0864 17.905C73.3964 17.785 73.6364 17.595 73.8064 17.335C73.9864 17.075 74.0764 16.73 74.0764 16.3L74.3164 17.05C74.3164 17.49 74.1964 17.87 73.9564 18.19C73.7264 18.5 73.4164 18.74 73.0264 18.91C72.6364 19.07 72.2014 19.15 71.7214 19.15C71.2914 19.15 70.8964 19.07 70.5364 18.91C70.1764 18.75 69.8864 18.515 69.6664 18.205C69.4564 17.885 69.3514 17.49 69.3514 17.02C69.3514 16.53 69.4714 16.115 69.7114 15.775C69.9514 15.435 70.2914 15.175 70.7314 14.995C71.1714 14.805 71.6914 14.71 72.2914 14.71C72.7314 14.71 73.1064 14.77 73.4164 14.89C73.7364 15 73.9914 15.13 74.1814 15.28C74.3714 15.42 74.5014 15.535 74.5714 15.625V16.33C74.2314 16.09 73.8864 15.915 73.5364 15.805C73.1864 15.685 72.7914 15.625 72.3514 15.625C71.9514 15.625 71.6164 15.68 71.3464 15.79C71.0864 15.9 70.8914 16.055 70.7614 16.255C70.6314 16.455 70.5664 16.695 70.5664 16.975ZM70.5664 13.72L69.9814 12.805C70.2414 12.615 70.5914 12.425 71.0314 12.235C71.4714 12.045 72.0014 11.95 72.6214 11.95C73.1514 11.95 73.6114 12.035 74.0014 12.205C74.4014 12.365 74.7114 12.6 74.9314 12.91C75.1614 13.22 75.2764 13.6 75.2764 14.05V19H74.0764V14.05C74.0764 13.7 73.9264 13.44 73.6264 13.27C73.3364 13.09 73.0014 13 72.6214 13C72.2914 13 71.9914 13.045 71.7214 13.135C71.4514 13.215 71.2164 13.315 71.0164 13.435C70.8264 13.545 70.6764 13.64 70.5664 13.72ZM84.5066 12.1H86.0066L82.8566 15.1L86.3066 19H84.8066L81.5066 14.95L84.5066 12.1ZM81.8066 12.1V19H80.6816V12.1H81.8066ZM77.9816 12.1L80.9816 14.95L77.6816 19H76.1816L79.6316 15.1L76.4816 12.1H77.9816Z" fill="#755FBB"/>
</svg>
