<svg width="85" height="29" viewBox="0 0 85 29" fill="none" xmlns="http://www.w3.org/2000/svg">
<path d="M74.5884 14.7839L84.0478 28.5H0.5V0.5H84.0478L74.5884 14.2161L74.3926 14.5L74.5884 14.7839Z" fill="#F5F5F5" stroke="#BB8C5F"/>
<path d="M11.905 13.9V12.7H19.105V13.9H11.905ZM18.25 8.5H19.525V19H18.25V8.5ZM11.2 8.5H12.475V19H11.2V8.5ZM21.2477 15.55C21.2477 14.85 21.4027 14.23 21.7127 13.69C22.0327 13.15 22.4627 12.725 23.0027 12.415C23.5427 12.105 24.1477 11.95 24.8177 11.95C25.4977 11.95 26.1027 12.105 26.6327 12.415C27.1727 12.725 27.5977 13.15 27.9077 13.69C28.2277 14.23 28.3877 14.85 28.3877 15.55C28.3877 16.24 28.2277 16.86 27.9077 17.41C27.5977 17.95 27.1727 18.375 26.6327 18.685C26.1027 18.995 25.4977 19.15 24.8177 19.15C24.1477 19.15 23.5427 18.995 23.0027 18.685C22.4627 18.375 22.0327 17.95 21.7127 17.41C21.4027 16.86 21.2477 16.24 21.2477 15.55ZM22.4627 15.55C22.4627 16.03 22.5627 16.455 22.7627 16.825C22.9727 17.195 23.2527 17.49 23.6027 17.71C23.9627 17.92 24.3677 18.025 24.8177 18.025C25.2677 18.025 25.6677 17.92 26.0177 17.71C26.3777 17.49 26.6577 17.195 26.8577 16.825C27.0677 16.455 27.1727 16.03 27.1727 15.55C27.1727 15.07 27.0677 14.645 26.8577 14.275C26.6577 13.895 26.3777 13.6 26.0177 13.39C25.6677 13.18 25.2677 13.075 24.8177 13.075C24.3677 13.075 23.9627 13.18 23.6027 13.39C23.2527 13.6 22.9727 13.895 22.7627 14.275C22.5627 14.645 22.4627 15.07 22.4627 15.55ZM30.7411 15.4H32.7361C33.2161 15.4 33.6461 15.45 34.0261 15.55C34.4061 15.65 34.7061 15.825 34.9261 16.075C35.1461 16.325 35.2561 16.675 35.2561 17.125C35.2561 17.645 35.0811 18.09 34.7311 18.46C34.3911 18.82 33.8261 19 33.0361 19H30.7411V17.95H32.7361C33.1861 17.95 33.5161 17.855 33.7261 17.665C33.9461 17.475 34.0561 17.245 34.0561 16.975C34.0561 16.835 34.0261 16.71 33.9661 16.6C33.9161 16.49 33.8361 16.39 33.7261 16.3C33.6261 16.21 33.4911 16.145 33.3211 16.105C33.1611 16.055 32.9661 16.03 32.7361 16.03H30.7411V15.4ZM30.7411 15.7V14.995H32.5861C32.7661 14.995 32.9261 14.975 33.0661 14.935C33.2161 14.885 33.3411 14.815 33.4411 14.725C33.5411 14.635 33.6161 14.535 33.6661 14.425C33.7261 14.305 33.7561 14.18 33.7561 14.05C33.7561 13.78 33.6511 13.565 33.4411 13.405C33.2311 13.235 32.9461 13.15 32.5861 13.15H30.7411V12.1H32.5861C33.0161 12.1 33.4061 12.165 33.7561 12.295C34.1161 12.415 34.4061 12.615 34.6261 12.895C34.8461 13.165 34.9561 13.525 34.9561 13.975C34.9561 14.365 34.8461 14.69 34.6261 14.95C34.4061 15.2 34.1161 15.39 33.7561 15.52C33.4061 15.64 33.0161 15.7 32.5861 15.7H30.7411ZM30.0361 12.1H31.2361V19H30.0361V12.1ZM42.608 13.3L36.908 19.525L36.983 17.8L42.683 11.575L42.608 13.3ZM38.108 12.1V17.875L36.908 19.525V12.1H38.108ZM42.683 11.575V19H41.483V13.225L42.683 11.575ZM45.7118 15.925V14.8H50.8118V15.925H45.7118ZM50.0318 12.1H51.2318V19H50.0318V12.1ZM45.0068 12.1H46.2068V19H45.0068V12.1ZM53.4133 12.1H54.6133V19H53.4133V12.1ZM57.1633 12.1H58.6633L55.6633 14.95L58.9633 19H57.4633L54.1633 14.95L57.1633 12.1ZM60.6347 16.975C60.6347 17.215 60.6997 17.42 60.8297 17.59C60.9597 17.75 61.1347 17.875 61.3547 17.965C61.5747 18.045 61.8197 18.085 62.0897 18.085C62.4897 18.085 62.8447 18.025 63.1547 17.905C63.4647 17.785 63.7047 17.595 63.8747 17.335C64.0547 17.075 64.1447 16.73 64.1447 16.3L64.3847 17.05C64.3847 17.49 64.2647 17.87 64.0247 18.19C63.7947 18.5 63.4847 18.74 63.0947 18.91C62.7047 19.07 62.2697 19.15 61.7897 19.15C61.3597 19.15 60.9647 19.07 60.6047 18.91C60.2447 18.75 59.9547 18.515 59.7347 18.205C59.5247 17.885 59.4197 17.49 59.4197 17.02C59.4197 16.53 59.5397 16.115 59.7797 15.775C60.0197 15.435 60.3597 15.175 60.7997 14.995C61.2397 14.805 61.7597 14.71 62.3597 14.71C62.7997 14.71 63.1747 14.77 63.4847 14.89C63.8047 15 64.0597 15.13 64.2497 15.28C64.4397 15.42 64.5697 15.535 64.6397 15.625V16.33C64.2997 16.09 63.9547 15.915 63.6047 15.805C63.2547 15.685 62.8597 15.625 62.4197 15.625C62.0197 15.625 61.6847 15.68 61.4147 15.79C61.1547 15.9 60.9597 16.055 60.8297 16.255C60.6997 16.455 60.6347 16.695 60.6347 16.975ZM60.6347 13.72L60.0497 12.805C60.3097 12.615 60.6597 12.425 61.0997 12.235C61.5397 12.045 62.0697 11.95 62.6897 11.95C63.2197 11.95 63.6797 12.035 64.0697 12.205C64.4697 12.365 64.7797 12.6 64.9997 12.91C65.2297 13.22 65.3447 13.6 65.3447 14.05V19H64.1447V14.05C64.1447 13.7 63.9947 13.44 63.6947 13.27C63.4047 13.09 63.0697 13 62.6897 13C62.3597 13 62.0597 13.045 61.7897 13.135C61.5197 13.215 61.2847 13.315 61.0847 13.435C60.8947 13.545 60.7447 13.64 60.6347 13.72Z" fill="#BB8C5F"/>
</svg>
