<svg width="123" height="29" viewBox="0 0 123 29" fill="none" xmlns="http://www.w3.org/2000/svg">
<path d="M112.588 14.7839L122.048 28.5H0.5V0.5H122.048L112.588 14.2161L112.393 14.5L112.588 14.7839Z" fill="#F5F5F5" stroke="#636B78"/>
<path d="M11.905 13.9V12.7H19.105V13.9H11.905ZM18.25 8.5H19.525V19H18.25V8.5ZM11.2 8.5H12.475V19H11.2V8.5ZM22.0127 15.85V14.83H26.6177C26.5777 14.47 26.4777 14.155 26.3177 13.885C26.1677 13.605 25.9527 13.39 25.6727 13.24C25.4027 13.08 25.0677 13 24.6677 13C24.2677 13 23.9027 13.085 23.5727 13.255C23.2427 13.425 22.9777 13.67 22.7777 13.99C22.5877 14.3 22.4927 14.67 22.4927 15.1L22.4627 15.55C22.4627 16.08 22.5527 16.53 22.7327 16.9C22.9127 17.27 23.1677 17.55 23.4977 17.74C23.8277 17.93 24.2177 18.025 24.6677 18.025C25.0077 18.025 25.3077 17.975 25.5677 17.875C25.8377 17.765 26.0777 17.62 26.2877 17.44C26.4977 17.25 26.6777 17.03 26.8277 16.78L27.8027 17.395C27.5727 17.745 27.3177 18.055 27.0377 18.325C26.7577 18.585 26.4177 18.79 26.0177 18.94C25.6177 19.08 25.1177 19.15 24.5177 19.15C23.8977 19.15 23.3377 18.995 22.8377 18.685C22.3477 18.375 21.9577 17.95 21.6677 17.41C21.3877 16.86 21.2477 16.24 21.2477 15.55C21.2477 15.42 21.2527 15.295 21.2627 15.175C21.2727 15.055 21.2877 14.935 21.3077 14.815C21.4077 14.245 21.6077 13.745 21.9077 13.315C22.2077 12.885 22.5927 12.55 23.0627 12.31C23.5427 12.07 24.0777 11.95 24.6677 11.95C25.3177 11.95 25.8877 12.095 26.3777 12.385C26.8677 12.675 27.2477 13.085 27.5177 13.615C27.7877 14.135 27.9227 14.76 27.9227 15.49C27.9227 15.55 27.9227 15.61 27.9227 15.67C27.9227 15.73 27.9177 15.79 27.9077 15.85H22.0127ZM28.5174 12.1H32.5674V13.225H28.5174V12.1ZM29.9424 12.4H31.1424V19H29.9424V12.4ZM38.9736 15.925V14.8H44.0736V15.925H38.9736ZM43.2936 12.1H44.4936V19H43.2936V12.1ZM38.2686 12.1H39.4686V19H38.2686V12.1ZM47.29 16.975C47.29 17.215 47.355 17.42 47.485 17.59C47.615 17.75 47.79 17.875 48.01 17.965C48.23 18.045 48.475 18.085 48.745 18.085C49.145 18.085 49.5 18.025 49.81 17.905C50.12 17.785 50.36 17.595 50.53 17.335C50.71 17.075 50.8 16.73 50.8 16.3L51.04 17.05C51.04 17.49 50.92 17.87 50.68 18.19C50.45 18.5 50.14 18.74 49.75 18.91C49.36 19.07 48.925 19.15 48.445 19.15C48.015 19.15 47.62 19.07 47.26 18.91C46.9 18.75 46.61 18.515 46.39 18.205C46.18 17.885 46.075 17.49 46.075 17.02C46.075 16.53 46.195 16.115 46.435 15.775C46.675 15.435 47.015 15.175 47.455 14.995C47.895 14.805 48.415 14.71 49.015 14.71C49.455 14.71 49.83 14.77 50.14 14.89C50.46 15 50.715 15.13 50.905 15.28C51.095 15.42 51.225 15.535 51.295 15.625V16.33C50.955 16.09 50.61 15.915 50.26 15.805C49.91 15.685 49.515 15.625 49.075 15.625C48.675 15.625 48.34 15.68 48.07 15.79C47.81 15.9 47.615 16.055 47.485 16.255C47.355 16.455 47.29 16.695 47.29 16.975ZM47.29 13.72L46.705 12.805C46.965 12.615 47.315 12.425 47.755 12.235C48.195 12.045 48.725 11.95 49.345 11.95C49.875 11.95 50.335 12.035 50.725 12.205C51.125 12.365 51.435 12.6 51.655 12.91C51.885 13.22 52 13.6 52 14.05V19H50.8V14.05C50.8 13.7 50.65 13.44 50.35 13.27C50.06 13.09 49.725 13 49.345 13C49.015 13 48.715 13.045 48.445 13.135C48.175 13.215 47.94 13.315 47.74 13.435C47.55 13.545 47.4 13.64 47.29 13.72ZM59.0673 15.55C59.0673 16.03 59.1673 16.455 59.3673 16.825C59.5773 17.195 59.8573 17.49 60.2073 17.71C60.5673 17.92 60.9723 18.025 61.4223 18.025C61.7923 18.025 62.1373 17.97 62.4573 17.86C62.7873 17.74 63.0723 17.585 63.3123 17.395C63.5523 17.195 63.7223 16.985 63.8223 16.765V18.265C63.5823 18.545 63.2373 18.765 62.7873 18.925C62.3473 19.075 61.8923 19.15 61.4223 19.15C60.7523 19.15 60.1473 18.995 59.6073 18.685C59.0673 18.375 58.6373 17.95 58.3173 17.41C58.0073 16.86 57.8523 16.24 57.8523 15.55C57.8523 14.85 58.0073 14.23 58.3173 13.69C58.6373 13.15 59.0673 12.725 59.6073 12.415C60.1473 12.105 60.7523 11.95 61.4223 11.95C61.8923 11.95 62.3473 12.03 62.7873 12.19C63.2373 12.34 63.5823 12.555 63.8223 12.835V14.335C63.7223 14.105 63.5523 13.895 63.3123 13.705C63.0723 13.515 62.7873 13.365 62.4573 13.255C62.1373 13.135 61.7923 13.075 61.4223 13.075C60.9723 13.075 60.5673 13.18 60.2073 13.39C59.8573 13.6 59.5773 13.895 59.3673 14.275C59.1673 14.645 59.0673 15.07 59.0673 15.55ZM65.6154 12.1H66.8154V19H65.6154V12.1ZM69.3654 12.1H70.8654L67.8654 14.95L71.1654 19H69.6654L66.3654 14.95L69.3654 12.1ZM78.3419 12.1V19H77.1419V13.225H73.6169V16.6C73.6169 17.14 73.5319 17.59 73.3619 17.95C73.2019 18.3 72.9519 18.565 72.6119 18.745C72.2719 18.915 71.8419 19 71.3219 19V17.905C71.6219 17.905 71.8769 17.81 72.0869 17.62C72.3069 17.43 72.4169 17.09 72.4169 16.6V12.1H78.3419ZM81.2011 16.975C81.2011 17.215 81.2661 17.42 81.3961 17.59C81.5261 17.75 81.7011 17.875 81.9211 17.965C82.1411 18.045 82.3861 18.085 82.6561 18.085C83.0561 18.085 83.4111 18.025 83.7211 17.905C84.0311 17.785 84.2711 17.595 84.4411 17.335C84.6211 17.075 84.7111 16.73 84.7111 16.3L84.9511 17.05C84.9511 17.49 84.8311 17.87 84.5911 18.19C84.3611 18.5 84.0511 18.74 83.6611 18.91C83.2711 19.07 82.8361 19.15 82.3561 19.15C81.9261 19.15 81.5311 19.07 81.1711 18.91C80.8111 18.75 80.5211 18.515 80.3011 18.205C80.0911 17.885 79.9861 17.49 79.9861 17.02C79.9861 16.53 80.1061 16.115 80.3461 15.775C80.5861 15.435 80.9261 15.175 81.3661 14.995C81.8061 14.805 82.3261 14.71 82.9261 14.71C83.3661 14.71 83.7411 14.77 84.0511 14.89C84.3711 15 84.6261 15.13 84.8161 15.28C85.0061 15.42 85.1361 15.535 85.2061 15.625V16.33C84.8661 16.09 84.5211 15.915 84.1711 15.805C83.8211 15.685 83.4261 15.625 82.9861 15.625C82.5861 15.625 82.2511 15.68 81.9811 15.79C81.7211 15.9 81.5261 16.055 81.3961 16.255C81.2661 16.455 81.2011 16.695 81.2011 16.975ZM81.2011 13.72L80.6161 12.805C80.8761 12.615 81.2261 12.425 81.6661 12.235C82.1061 12.045 82.6361 11.95 83.2561 11.95C83.7861 11.95 84.2461 12.035 84.6361 12.205C85.0361 12.365 85.3461 12.6 85.5661 12.91C85.7961 13.22 85.9111 13.6 85.9111 14.05V19H84.7111V14.05C84.7111 13.7 84.5611 13.44 84.2611 13.27C83.9711 13.09 83.6361 13 83.2561 13C82.9261 13 82.6261 13.045 82.3561 13.135C82.0861 13.215 81.8511 13.315 81.6511 13.435C81.4611 13.545 81.3111 13.64 81.2011 13.72ZM91.6914 14.17L89.6664 18.55H88.3164L91.6914 11.575L95.0664 18.55H93.7164L91.6914 14.17ZM94.7664 19H88.6914V20.35H87.4164V17.875H95.9664V20.35H94.7664V19ZM97.9355 15.85V14.83H102.541C102.501 14.47 102.401 14.155 102.241 13.885C102.091 13.605 101.876 13.39 101.596 13.24C101.326 13.08 100.991 13 100.591 13C100.191 13 99.8255 13.085 99.4955 13.255C99.1655 13.425 98.9005 13.67 98.7005 13.99C98.5105 14.3 98.4155 14.67 98.4155 15.1L98.3855 15.55C98.3855 16.08 98.4755 16.53 98.6555 16.9C98.8355 17.27 99.0905 17.55 99.4205 17.74C99.7505 17.93 100.141 18.025 100.591 18.025C100.931 18.025 101.231 17.975 101.491 17.875C101.761 17.765 102.001 17.62 102.211 17.44C102.421 17.25 102.601 17.03 102.751 16.78L103.726 17.395C103.496 17.745 103.241 18.055 102.961 18.325C102.681 18.585 102.341 18.79 101.941 18.94C101.541 19.08 101.041 19.15 100.441 19.15C99.8205 19.15 99.2605 18.995 98.7605 18.685C98.2705 18.375 97.8805 17.95 97.5905 17.41C97.3105 16.86 97.1705 16.24 97.1705 15.55C97.1705 15.42 97.1755 15.295 97.1855 15.175C97.1955 15.055 97.2105 14.935 97.2305 14.815C97.3305 14.245 97.5305 13.745 97.8305 13.315C98.1305 12.885 98.5155 12.55 98.9855 12.31C99.4655 12.07 100.001 11.95 100.591 11.95C101.241 11.95 101.811 12.095 102.301 12.385C102.791 12.675 103.171 13.085 103.441 13.615C103.711 14.135 103.846 14.76 103.846 15.49C103.846 15.55 103.846 15.61 103.846 15.67C103.846 15.73 103.841 15.79 103.831 15.85H97.9355Z" fill="#636B78"/>
</svg>
