<svg width="69" height="29" viewBox="0 0 69 29" fill="none" xmlns="http://www.w3.org/2000/svg">
<path d="M58.5884 14.7839L68.0478 28.5H0.5V0.5H68.0478L58.5884 14.2161L58.3926 14.5L58.5884 14.7839Z" fill="#F5F5F5" stroke="#5FBBA3"/>
<path d="M12.205 15.85L12.655 14.65H17.305L17.755 15.85H12.205ZM14.95 10.87L13.18 15.04L13.06 15.31L11.5 19H10.075L14.95 7.975L19.825 19H18.4L16.87 15.4L16.75 15.1L14.95 10.87ZM20.9523 12.1H22.1523V19H20.9523V12.1ZM24.7023 12.1H26.2023L23.2023 14.95L26.5023 19H25.0023L21.7023 14.95L24.7023 12.1ZM33.2588 17.875H34.4588V20.35H33.4088V19H27.6338V12.1H28.8338V17.875H32.0588V12.1H33.2588V17.875ZM41.8902 13.3L36.1902 19.525L36.2652 17.8L41.9652 11.575L41.8902 13.3ZM37.3902 12.1V17.875L36.1902 19.525V12.1H37.3902ZM41.9652 11.575V19H40.7652V13.225L41.9652 11.575ZM45.2791 19H43.9591L46.5091 15.4H47.8291L45.2791 19ZM49.6591 19H48.4591V12.1H49.6591V19ZM48.9541 15.19V16.24H46.8091C46.3391 16.24 45.9091 16.17 45.5191 16.03C45.1391 15.89 44.8391 15.67 44.6191 15.37C44.3991 15.06 44.2891 14.66 44.2891 14.17C44.2891 13.67 44.3991 13.27 44.6191 12.97C44.8391 12.67 45.1391 12.45 45.5191 12.31C45.9091 12.17 46.3391 12.1 46.8091 12.1H48.9541V13.15H46.8091C46.5191 13.15 46.2741 13.19 46.0741 13.27C45.8841 13.34 45.7391 13.45 45.6391 13.6C45.5391 13.75 45.4891 13.94 45.4891 14.17C45.4891 14.4 45.5391 14.59 45.6391 14.74C45.7391 14.89 45.8841 15.005 46.0741 15.085C46.2741 15.155 46.5191 15.19 46.8091 15.19H48.9541Z" fill="#5FBBA3"/>
</svg>
